HIERARCHY
ROOT Hips
{
	OFFSET 0.000000 0.000000 0.000000
	CHANNELS 6 Xposition Yposition Zposition Xrotation Yrotation Zrotation
	JOINT LeftUpLeg_virtual
	{
		OFFSET 0.000000 0.000000 0.000000
		CHANNELS 3 Xrotation Yrotation Zrotation
		JOINT LeftUpLeg
		{
			OFFSET 15.427100 -6.655098 0.678600
			CHANNELS 3 Xrotation Yrotation Zrotation
			JOINT LeftLeg
			{
				OFFSET 4.081073 -39.591068 13.024000
				CHANNELS 3 Xrotation Yrotation Zrotation
				JOINT LeftFoot
				{
					OFFSET -4.081074 -37.707932 -15.979700
					CHANNELS 3 Xrotation Yrotation Zrotation
					JOINT LeftToeBase
					{
						OFFSET 5.346399 -15.068900 20.645000
						CHANNELS 3 Xrotation Yrotation Zrotation
						JOINT LeftToe_End
						{
							OFFSET 2.754700 0.931300 11.300900
							CHANNELS 3 Xrotation Yrotation Zrotation
							End Site
							{
								OFFSET 0 0 0
							}
						}
					}
				}
			}
		}
	}
	JOINT RightUpLeg_virtual
	{
		OFFSET 0.000000 0.000000 0.000000
		CHANNELS 3 Xrotation Yrotation Zrotation
		JOINT RightUpLeg
		{
			OFFSET -15.569500 -6.655098 0.678600
			CHANNELS 3 Xrotation Yrotation Zrotation
			JOINT RightLeg
			{
				OFFSET -4.081825 -39.591045 13.023800
				CHANNELS 3 Xrotation Yrotation Zrotation
				JOINT RightFoot
				{
					OFFSET 4.081824 -37.707954 -15.979600
					CHANNELS 3 Xrotation Yrotation Zrotation
					JOINT RightToeBase
					{
						OFFSET -5.346400 -15.068900 20.645000
						CHANNELS 3 Xrotation Yrotation Zrotation
						JOINT RightToe_End
						{
							OFFSET -2.754700 0.931300 11.300900
							CHANNELS 3 Xrotation Yrotation Zrotation
							End Site
							{
								OFFSET 0 0 0
							}
						}
					}
				}
			}
		}
	}
	JOINT Spine_virtual
	{
		OFFSET 0.000000 0.000000 0.000000
		CHANNELS 3 Xrotation Yrotation Zrotation
		JOINT Spine
		{
			OFFSET -0.279200 12.230698 -2.892100
			CHANNELS 3 Xrotation Yrotation Zrotation
			JOINT Spine1
			{
				OFFSET -0.232667 10.192268 -1.242267
				CHANNELS 3 Xrotation Yrotation Zrotation
				JOINT Spine1_split
				{
					OFFSET -0.232667 10.192268 -1.242267
					CHANNELS 3 Xrotation Yrotation Zrotation
					JOINT Spine2
					{
						OFFSET -0.232667 10.192268 -1.242267
						CHANNELS 3 Xrotation Yrotation Zrotation
						JOINT Neck_virtual
						{
							OFFSET 0.000000 0.000000 0.000000
							CHANNELS 3 Xrotation Yrotation Zrotation
							JOINT Neck
							{
								OFFSET -0.418800 17.814194 8.416900
								CHANNELS 3 Xrotation Yrotation Zrotation
								JOINT Head
								{
									OFFSET 0.000000 7.031097 3.806800
									CHANNELS 3 Xrotation Yrotation Zrotation
									JOINT HeadTop_End
									{
										OFFSET 0.000000 24.646606 12.978600
										CHANNELS 3 Xrotation Yrotation Zrotation
										End Site
										{
											OFFSET 0 0 0
										}
									}
								}
							}
						}
						JOINT LeftShoulder_virtual
						{
							OFFSET 0.000000 0.000000 0.000000
							CHANNELS 3 Xrotation Yrotation Zrotation
							JOINT LeftShoulder
							{
								OFFSET 8.476499 7.247704 -3.868750
								CHANNELS 3 Xrotation Yrotation Zrotation
								JOINT LeftShoulder_split
								{
									OFFSET 8.476499 7.247704 -3.868750
									CHANNELS 3 Xrotation Yrotation Zrotation
									JOINT LeftArm
									{
										OFFSET 9.308998 -2.777710 0.208600
										CHANNELS 3 Xrotation Yrotation Zrotation
										JOINT LeftForeArm
										{
											OFFSET 29.972298 0.000000 0.000000
											CHANNELS 3 Xrotation Yrotation Zrotation
											JOINT LeftHand
											{
												OFFSET 26.026505 0.000000 0.000000
												CHANNELS 3 Xrotation Yrotation Zrotation
												End Site
												{
													OFFSET 0 0 0
												}
											}
										}
									}
								}
							}
						}
						JOINT RightShoulder_virtual
						{
							OFFSET 0.000000 0.000000 0.000000
							CHANNELS 3 Xrotation Yrotation Zrotation
							JOINT RightShoulder
							{
								OFFSET -7.570500 7.247704 -3.868750
								CHANNELS 3 Xrotation Yrotation Zrotation
								JOINT RightShoulder_split
								{
									OFFSET -7.570500 7.247704 -3.868750
									CHANNELS 3 Xrotation Yrotation Zrotation
									JOINT RightArm
									{
										OFFSET -9.308998 -2.777710 0.208500
										CHANNELS 3 Xrotation Yrotation Zrotation
										JOINT RightForeArm
										{
											OFFSET -29.972300 0.000000 0.000000
											CHANNELS 3 Xrotation Yrotation Zrotation
											JOINT RightHand
											{
												OFFSET -26.026505 0.000000 0.000000
												CHANNELS 3 Xrotation Yrotation Zrotation
												End Site
												{
													OFFSET 0 0 0
												}
											}
										}
									}
								}
							}
						}
					}
				}
			}
		}
	}
}
MOTION
Frames: 10
Frame Time: 0.03333333
-1.189818 85.271858 -6.777145 0.000000 0.000000 0.000000 -8.274754 -39.943394 -3.790209 -21.278879 6.956773 20.850201 33.613690 10.391873 0.211025 0.382147 7.073477 -18.307309 -2.202544 -0.882674 -4.328394 0.000000 0.000000 0.000000 -7.620006 -37.940085 -3.391881 -12.118001 -14.926214 -24.048340 36.069327 4.073071 6.471232 -17.996994 -9.057479 27.573692 0.465912 5.583206 -7.227729 0.000000 0.000000 0.000000 -12.814507 -40.237672 -6.902874 3.329835 6.952348 6.877202 2.816046 5.999914 -0.155847 0.170735 -0.704817 -0.054737 0.000000 0.000000 0.000000 2.348076 8.857153 -0.622126 -17.029530 6.164131 -21.563437 -116.924806 -68.569922 -145.113502 0.000000 0.000000 0.000000 -2.597749 6.235497 -1.559405 9.045517 -43.435536 -9.732472 2.671944 0.549134 -2.397923 13.790647 -7.308135 -25.090437 -101.247507 36.340062 -60.290175 0.000000 0.000000 0.000000 -3.932752 6.585211 1.932425 10.571334 7.001612 -9.450777 2.290839 -4.361479 0.163753 9.361538 18.212204 39.719807 -51.120565 39.640560 42.495012 0.000000 0.000000 0.000000 
-0.950097 85.347824 -4.982552 0.000000 0.000000 0.000000 -8.457856 -40.195260 -3.940360 -22.097653 7.894661 20.961755 33.817653 9.952982 0.061196 0.201604 6.694265 -18.926087 -2.121880 -0.886751 -3.960086 0.000000 0.000000 0.000000 -7.493290 -37.429303 -3.362878 -11.870309 -14.196669 -23.870664 35.953665 3.692401 6.284252 -17.493569 -9.744287 27.366196 -0.279581 5.388469 -6.941621 0.000000 0.000000 0.000000 -12.602876 -39.628030 -6.881535 3.634161 6.977419 6.838892 3.211536 5.981111 -0.150472 0.140637 -0.807838 -0.016951 0.000000 0.000000 0.000000 2.410462 9.051758 -0.812051 -16.792812 5.883968 -21.458043 -115.196017 -68.110742 -143.119716 0.000000 0.000000 0.000000 -2.224511 6.203977 -1.598162 9.272766 -43.500174 -8.855913 2.252264 1.416476 -2.309299 13.487092 -6.310153 -25.458459 -100.627592 36.567187 -60.074007 0.000000 0.000000 0.000000 -3.686502 6.743357 1.948509 10.269942 7.767046 -9.187373 2.684985 -3.892923 -0.510327 8.272151 18.704654 40.106335 -51.178741 40.052110 42.343338 0.000000 0.000000 0.000000 
-0.571489 85.164551 -2.969715 0.000000 0.000000 0.000000 -7.897428 -39.024638 -3.526494 -23.819079 8.755436 20.772395 35.252495 9.195281 -0.658985 -0.734232 5.975514 -18.521047 -1.418521 -0.851358 -3.529510 0.000000 0.000000 0.000000 -7.062471 -35.706672 -2.979893 -11.677607 -12.601855 -23.427465 36.443834 3.373935 5.786773 -17.456323 -10.928448 26.087380 -0.444347 5.025120 -6.758429 0.000000 0.000000 0.000000 -11.466455 -38.001762 -6.176884 4.225216 6.846500 6.747727 3.378946 6.215726 -0.372067 0.107693 -0.904184 0.036260 0.000000 0.000000 0.000000 2.267590 9.447321 -1.078071 -16.278844 5.948916 -21.265908 -114.888099 -66.756070 -142.436027 0.000000 0.000000 0.000000 -2.084869 6.442356 -1.772457 9.771263 -42.650293 -7.574574 1.684543 1.991784 -2.270563 11.200318 -5.363694 -27.067936 -100.098458 36.923463 -59.334482 0.000000 0.000000 0.000000 -3.725445 7.090217 1.731579 10.154038 9.213029 -8.781016 3.446521 -3.580061 -0.821382 6.450355 19.788798 40.461214 -49.915702 39.989112 40.633595 0.000000 0.000000 0.000000 
-0.093043 84.775597 -1.067783 0.000000 0.000000 0.000000 -6.759758 -36.559878 -2.697061 -26.103668 9.234831 20.137085 37.644290 8.039869 -1.575395 -1.986859 4.909161 -17.367598 -0.914974 -0.762309 -3.068159 0.000000 0.000000 0.000000 -6.235148 -32.985627 -2.257798 -11.906293 -10.221995 -22.787553 37.410247 3.509709 5.100660 -17.302879 -11.913107 24.519433 -0.519812 4.602591 -6.716899 0.000000 0.000000 0.000000 -9.697579 -35.516707 -5.019738 4.873638 6.549760 6.576502 3.335004 6.727925 -0.816685 0.111611 -1.014332 0.027858 0.000000 0.000000 0.000000 1.970626 10.091963 -1.445075 -15.405384 6.224331 -20.862826 -116.635862 -64.766046 -143.587584 0.000000 0.000000 0.000000 -2.117440 7.001052 -2.105004 10.370468 -41.006168 -6.184450 1.165875 2.324278 -2.287468 7.314297 -4.489570 -29.741181 -99.710066 37.406371 -58.005825 0.000000 0.000000 0.000000 -3.953760 7.688221 1.266081 10.157434 10.948654 -8.245335 4.662349 -3.850211 -0.818673 3.537217 21.055327 41.180761 -47.775056 39.523494 37.790299 0.000000 0.000000 0.000000 
0.397649 84.287842 0.652309 0.000000 0.000000 0.000000 -5.396831 -33.117723 -1.720790 -28.465472 9.204371 18.864134 40.263426 6.654126 -2.342866 -3.176637 3.631397 -15.536997 -1.391570 -0.600644 -2.680852 0.000000 0.000000 0.000000 -5.121126 -29.455621 -1.356657 -12.626815 -7.310817 -21.777240 38.624624 4.312189 4.212589 -16.822913 -12.242579 23.158139 -1.431965 4.211092 -6.836769 0.000000 0.000000 0.000000 -7.572893 -32.429356 -3.642486 5.392051 6.049010 6.316528 3.145366 7.565537 -1.440011 0.192047 -1.054730 0.020359 0.000000 0.000000 0.000000 1.589496 11.001014 -1.907603 -14.320266 6.565407 -20.120047 -120.330844 -62.514017 -146.573524 0.000000 0.000000 0.000000 -2.237957 7.903465 -2.594953 10.906870 -38.686704 -5.025284 0.753764 2.244076 -2.079559 2.620758 -3.554394 -33.181021 -99.512892 38.002073 -56.147017 0.000000 0.000000 0.000000 -4.220359 8.577549 0.599871 10.154483 12.557981 -7.588308 5.593076 -4.668188 -0.247631 -0.341974 22.315568 42.463095 -45.587882 39.173027 34.672226 0.000000 0.000000 0.000000 
0.777198 83.778069 2.370846 0.000000 0.000000 0.000000 -3.972554 -28.972020 -0.750019 -30.546351 8.796993 16.872206 42.417804 5.357554 -2.732981 -4.090181 2.437444 -13.041702 -2.540798 -0.359757 -2.733100 0.000000 0.000000 0.000000 -3.880322 -25.457940 -0.401402 -13.698737 -4.185925 -20.268279 39.960001 5.638822 3.174958 -16.414039 -11.860100 21.809298 -3.273998 3.878875 -7.058308 0.000000 0.000000 0.000000 -5.502610 -29.024520 -2.284211 5.613606 5.365669 5.932628 2.883383 8.735267 -2.159359 0.249853 -1.000231 0.004524 0.000000 0.000000 0.000000 1.180948 12.187040 -2.412964 -13.160525 6.852673 -18.905976 -125.646480 -60.396965 -151.301790 0.000000 0.000000 0.000000 -2.323327 9.127892 -3.189649 11.296569 -35.822669 -4.232560 0.488324 1.528329 -1.873860 -2.214540 -2.498280 -36.939118 -99.622796 38.578141 -54.027852 0.000000 0.000000 0.000000 -4.343747 9.768554 -0.196980 10.063067 13.719475 -6.779281 5.994431 -5.420886 0.904913 -5.008728 23.031550 44.557941 -43.802201 39.395028 31.863266 0.000000 0.000000 0.000000 
0.982584 83.327026 4.247307 0.000000 0.000000 0.000000 -2.791354 -24.323079 0.073860 -32.196955 8.071469 14.294459 43.705503 4.285895 -2.739648 -4.527243 1.557431 -10.275587 -3.517021 0.002788 -3.611267 0.000000 0.000000 0.000000 -2.730523 -21.328594 0.509324 -15.013635 -1.158730 -18.232507 41.607525 7.136681 2.103136 -16.449501 -10.958330 19.924874 -5.201877 3.555484 -7.254528 0.000000 0.000000 0.000000 -3.698614 -25.252538 -1.084861 5.508449 4.511849 5.352827 2.596802 10.150844 -2.866870 0.260455 -0.935303 -0.020404 0.000000 0.000000 0.000000 0.828748 13.595565 -2.914760 -12.242922 7.077133 -17.183453 -131.915337 -58.493603 -157.229070 0.000000 0.000000 0.000000 -2.296881 10.622902 -3.778626 11.566856 -32.479701 -3.724666 0.489684 0.323287 -1.763574 -6.883895 -1.318171 -40.683294 -100.088827 38.968056 -52.039884 0.000000 0.000000 0.000000 -4.255950 11.194647 -1.016507 9.825576 14.286082 -5.928934 6.411660 -5.801589 2.075891 -9.960724 22.972639 47.358571 -42.575660 40.486967 29.759250 0.000000 0.000000 0.000000 
1.009844 83.070671 5.971218 0.000000 0.000000 0.000000 -1.872296 -19.533706 0.748400 -33.430699 7.182600 11.494308 43.901546 3.363704 -2.475918 -4.548504 1.117856 -7.846585 -4.022087 0.522399 -5.160260 0.000000 0.000000 0.000000 -1.849180 -17.332336 1.283140 -16.497618 1.521655 -15.745090 43.818040 8.438194 1.147970 -16.917124 -9.746287 17.363618 -6.463759 3.174709 -7.267036 0.000000 0.000000 0.000000 -2.218985 -21.260082 -0.112186 5.161275 3.477365 4.546963 2.354795 11.709377 -3.450842 0.180615 -0.879203 -0.028870 0.000000 0.000000 0.000000 0.674984 15.111698 -3.327239 -11.775593 7.284235 -14.944420 -138.008630 -56.898037 -163.382428 0.000000 0.000000 0.000000 -2.124085 12.297441 -4.232192 11.823224 -28.701582 -3.143611 0.589499 -1.093859 -1.796281 -11.217292 -0.046645 -44.145114 -100.919385 39.080737 -50.652717 0.000000 0.000000 0.000000 -3.943820 12.742664 -1.751944 9.480779 14.283086 -5.095207 6.861188 -5.930875 2.893884 -14.508626 22.378201 50.553379 -41.835353 42.380207 28.442653 0.000000 0.000000 0.000000 
0.874092 83.016357 7.394180 0.000000 0.000000 0.000000 -1.204336 -14.896562 1.300085 -34.263733 6.192675 8.764533 43.256035 2.596282 -2.110777 -4.346253 0.970376 -6.129565 -4.159267 1.115666 -6.915289 0.000000 0.000000 0.000000 -1.235746 -13.419645 1.893665 -17.968302 3.807176 -13.035122 46.222089 9.466286 0.381320 -17.678138 -8.347931 14.591128 -7.227990 2.742913 -7.077218 0.000000 0.000000 0.000000 -1.025209 -17.256645 0.630925 4.708278 2.303541 3.532249 2.186168 13.266240 -3.868662 0.118690 -0.843487 -0.052458 0.000000 0.000000 0.000000 0.714375 16.612424 -3.631273 -11.835656 7.369394 -12.204733 -143.210625 -55.625600 -169.052878 0.000000 0.000000 0.000000 -1.849554 14.013581 -4.492183 12.042119 -24.703903 -2.361057 1.066384 -2.771583 -1.957109 -15.239832 1.353995 -47.158505 -101.944180 38.893805 -50.211490 0.000000 0.000000 0.000000 -3.428562 14.277338 -2.397093 9.133051 13.849822 -4.414058 7.672736 -5.143025 3.286581 -18.677460 21.260207 53.989531 -41.350792 44.571069 27.698249 0.000000 0.000000 0.000000 
0.675436 83.111519 8.482639 0.000000 0.000000 0.000000 -0.747957 -10.731735 1.740225 -34.707808 4.954128 6.329549 42.454752 1.715753 -1.710267 -3.849176 0.854514 -5.593041 -4.304707 1.669140 -8.358582 0.000000 0.000000 0.000000 -0.817161 -9.727943 2.328683 -19.175003 5.661933 -10.276109 48.189140 10.154702 -0.292915 -18.647520 -6.998871 11.965836 -7.717747 2.325594 -6.783676 0.000000 0.000000 0.000000 -0.079924 -13.337723 1.096184 4.310085 1.016245 2.375189 2.064492 14.698588 -4.174019 0.087676 -0.841507 -0.061027 0.000000 0.000000 0.000000 0.932762 17.986523 -3.875331 -12.443204 7.147292 -9.070384 -147.293835 -54.509684 -173.928786 0.000000 0.000000 0.000000 -1.528617 15.648069 -4.605897 12.174177 -20.828223 -1.428883 1.967421 -4.456150 -1.894283 -18.930762 2.918156 -49.654256 -102.858312 38.516437 -50.646140 0.000000 0.000000 0.000000 -2.847701 15.683117 -2.963831 8.857875 13.115544 -4.059409 8.522589 -3.502091 3.181594 -22.564005 19.904966 57.432308 -40.900300 46.521802 27.189267 0.000000 0.000000 0.000000 
